<svg width="50" height="32" viewBox="0 0 50 32" fill="none" xmlns="http://www.w3.org/2000/svg">
<path d="M19.9375 13.9531C22.6016 12.5781 24.0625 10.6016 24.0625 7.59375C24.0625 1.49219 19.5078 0.03125 14.3516 0.03125H0V30.4531H14.6953C20.2812 30.4531 25.4375 27.7891 25.4375 21.6016C25.4375 17.8203 23.6328 14.9844 19.9375 13.9531ZM6.61719 5.1875H12.9766C15.3828 5.1875 17.5312 5.875 17.5312 8.71094C17.5312 11.2891 15.8125 12.3203 13.4062 12.3203H6.61719V5.1875ZM13.8359 25.2969H6.61719V16.875H13.9219C16.9297 16.875 18.7344 18.1641 18.7344 21.2578C18.7344 24.3516 16.5 25.2969 13.8359 25.2969ZM44.6016 4.58594V1.57812H32.3125V4.58594H44.6016ZM49.5 19.7969C49.5 13.2656 45.6328 7.76562 38.7578 7.76562C31.9688 7.76562 27.4141 12.8359 27.4141 19.4531C27.4141 26.3281 31.7969 31.0547 38.7578 31.0547C44 31.0547 47.4375 28.6484 49.0703 23.6641H43.7422C43.1406 25.5547 40.7344 26.5 38.9297 26.5C35.4062 26.5 33.5156 24.4375 33.5156 20.9141H49.4141C49.4141 20.5703 49.5 20.1406 49.5 19.7969ZM33.5156 17.0469C33.6875 14.2109 35.6641 12.4062 38.5 12.4062C41.5938 12.4062 43.1406 14.125 43.3984 17.0469H33.5156Z" fill="#111111"/>
</svg>
