<svg width="44" height="33" viewBox="0 0 44 33" fill="none" xmlns="http://www.w3.org/2000/svg">
<path d="M39.875 0H4.125C1.80469 0 0 1.89062 0 4.125V28.875C0 31.1953 1.80469 33 4.125 33H39.875C42.1094 33 44 31.1953 44 28.875V4.125C44 1.89062 42.1094 0 39.875 0ZM39.875 4.125V7.64844C37.8984 9.28125 34.8047 11.6875 28.2734 16.8438C26.8125 17.9609 23.9766 20.7109 22 20.625C19.9375 20.7109 17.1016 17.9609 15.6406 16.8438C9.10938 11.6875 6.01562 9.28125 4.125 7.64844V4.125H39.875ZM4.125 28.875V12.9766C6.01562 14.5234 8.85156 16.7578 13.0625 20.1094C14.9531 21.5703 18.3047 24.8359 22 24.75C25.6094 24.8359 28.875 21.5703 30.8516 20.1094C35.0625 16.7578 37.8984 14.5234 39.875 12.9766V28.875H4.125Z" fill="#111111"/>
</svg>
