<svg width="43" height="42" viewBox="0 0 43 42" fill="none" xmlns="http://www.w3.org/2000/svg">
<path d="M14.1797 33.7031C14.1797 33.5312 14.0078 33.3594 13.75 33.3594C13.4922 33.3594 13.3203 33.5312 13.3203 33.7031C13.3203 33.875 13.4922 34.0469 13.75 33.9609C14.0078 33.9609 14.1797 33.875 14.1797 33.7031ZM11.5156 33.2734C11.5156 33.4453 11.6875 33.7031 11.9453 33.7031C12.1172 33.7891 12.375 33.7031 12.4609 33.5312C12.4609 33.3594 12.375 33.1875 12.1172 33.1016C11.8594 33.0156 11.6016 33.1016 11.5156 33.2734ZM15.3828 33.1875C15.125 33.1875 14.9531 33.3594 14.9531 33.6172C14.9531 33.7891 15.2109 33.875 15.4688 33.7891C15.7266 33.7031 15.8984 33.6172 15.8125 33.4453C15.8125 33.2734 15.5547 33.1016 15.3828 33.1875ZM20.9688 0.1875C9.10938 0.1875 0 9.29688 0 21.1562C0 30.6953 5.92969 38.8594 14.5234 41.7812C15.6406 41.9531 15.9844 41.2656 15.9844 40.75C15.9844 40.1484 15.9844 37.2266 15.9844 35.4219C15.9844 35.4219 9.96875 36.7109 8.67969 32.8438C8.67969 32.8438 7.73438 30.3516 6.35938 29.75C6.35938 29.75 4.38281 28.375 6.44531 28.375C6.44531 28.375 8.59375 28.5469 9.79688 30.6094C11.6875 33.9609 14.7812 33.0156 16.0703 32.4141C16.2422 31.0391 16.7578 30.0938 17.4453 29.4922C12.6328 28.9766 7.73438 28.2891 7.73438 20.0391C7.73438 17.6328 8.42188 16.5156 9.79688 14.9688C9.53906 14.3672 8.85156 12.1328 10.0547 9.125C11.7734 8.60938 15.9844 11.4453 15.9844 11.4453C17.7031 10.9297 19.5078 10.7578 21.3125 10.7578C23.2031 10.7578 25.0078 10.9297 26.7266 11.4453C26.7266 11.4453 30.8516 8.52344 32.6562 9.125C33.8594 12.1328 33.0859 14.3672 32.9141 14.9688C34.2891 16.5156 35.1484 17.6328 35.1484 20.0391C35.1484 28.2891 30.0781 28.9766 25.2656 29.4922C26.0391 30.1797 26.7266 31.4688 26.7266 33.5312C26.7266 36.3672 26.6406 39.9766 26.6406 40.6641C26.6406 41.2656 27.0703 41.9531 28.1875 41.6953C36.7812 38.8594 42.625 30.6953 42.625 21.1562C42.625 9.29688 32.9141 0.1875 20.9688 0.1875ZM8.33594 29.8359C8.16406 29.9219 8.25 30.1797 8.33594 30.3516C8.50781 30.4375 8.67969 30.5234 8.85156 30.4375C8.9375 30.3516 8.9375 30.0938 8.76562 29.9219C8.59375 29.8359 8.42188 29.75 8.33594 29.8359ZM7.39062 29.1484C7.30469 29.3203 7.39062 29.4062 7.5625 29.4922C7.73438 29.5781 7.90625 29.5781 7.99219 29.4062C7.99219 29.3203 7.90625 29.2344 7.73438 29.1484C7.5625 29.0625 7.47656 29.0625 7.39062 29.1484ZM10.1406 32.2422C10.0547 32.3281 10.0547 32.5859 10.3125 32.7578C10.4844 32.9297 10.7422 33.0156 10.8281 32.8438C10.9141 32.7578 10.9141 32.5 10.7422 32.3281C10.5703 32.1562 10.3125 32.0703 10.1406 32.2422ZM9.19531 30.9531C9.02344 31.0391 9.02344 31.2969 9.19531 31.4688C9.36719 31.6406 9.53906 31.7266 9.71094 31.6406C9.79688 31.5547 9.79688 31.2969 9.71094 31.125C9.53906 30.9531 9.36719 30.8672 9.19531 30.9531Z" fill="#111111"/>
</svg>
