<svg width="39" height="39" viewBox="0 0 39 39" fill="none" xmlns="http://www.w3.org/2000/svg">
<path d="M35.75 0.25H2.66406C1.20312 0.25 0 1.53906 0 3.08594V36C0 37.5469 1.20312 38.75 2.66406 38.75H35.75C37.2109 38.75 38.5 37.5469 38.5 36V3.08594C38.5 1.53906 37.2109 0.25 35.75 0.25ZM11.6016 33.25H5.92969V14.9453H11.6016V33.25ZM8.76562 12.3672C6.875 12.3672 5.41406 10.9062 5.41406 9.10156C5.41406 7.29688 6.875 5.75 8.76562 5.75C10.5703 5.75 12.0312 7.29688 12.0312 9.10156C12.0312 10.9062 10.5703 12.3672 8.76562 12.3672ZM33 33.25H27.2422V24.3125C27.2422 22.25 27.2422 19.5 24.3203 19.5C21.3125 19.5 20.8828 21.8203 20.8828 24.2266V33.25H15.2109V14.9453H20.625V17.4375H20.7109C21.4844 15.9766 23.375 14.4297 26.125 14.4297C31.8828 14.4297 33 18.2969 33 23.1953V33.25Z" fill="#111111"/>
</svg>
