<svg width="35" height="22" viewBox="0 0 35 22" fill="none" xmlns="http://www.w3.org/2000/svg">
<path d="M14.0938 9.69531C15.9102 8.75781 16.9062 7.41016 16.9062 5.35938C16.9062 1.19922 13.8008 0.203125 10.2852 0.203125H0.5V20.9453H10.5195C14.3281 20.9453 17.8438 19.1289 17.8438 14.9102C17.8438 12.332 16.6133 10.3984 14.0938 9.69531ZM5.01172 3.71875H9.34766C10.9883 3.71875 12.4531 4.1875 12.4531 6.12109C12.4531 7.87891 11.2812 8.58203 9.64062 8.58203H5.01172V3.71875ZM9.93359 17.4297H5.01172V11.6875H9.99219C12.043 11.6875 13.2734 12.5664 13.2734 14.6758C13.2734 16.7852 11.75 17.4297 9.93359 17.4297ZM30.9102 3.30859V1.25781H22.5312V3.30859H30.9102ZM34.25 13.6797C34.25 9.22656 31.6133 5.47656 26.9258 5.47656C22.2969 5.47656 19.1914 8.93359 19.1914 13.4453C19.1914 18.1328 22.1797 21.3555 26.9258 21.3555C30.5 21.3555 32.8438 19.7148 33.957 16.3164H30.3242C29.9141 17.6055 28.2734 18.25 27.043 18.25C24.6406 18.25 23.3516 16.8438 23.3516 14.4414H34.1914C34.1914 14.207 34.25 13.9141 34.25 13.6797ZM23.3516 11.8047C23.4688 9.87109 24.8164 8.64062 26.75 8.64062C28.8594 8.64062 29.9141 9.8125 30.0898 11.8047H23.3516Z" fill="#111111"/>
</svg>
