<svg width="31" height="23" viewBox="0 0 31 23" fill="none" xmlns="http://www.w3.org/2000/svg">
<path d="M27.6875 0.5H3.3125C1.73047 0.5 0.5 1.78906 0.5 3.3125V20.1875C0.5 21.7695 1.73047 23 3.3125 23H27.6875C29.2109 23 30.5 21.7695 30.5 20.1875V3.3125C30.5 1.78906 29.2109 0.5 27.6875 0.5ZM27.6875 3.3125V5.71484C26.3398 6.82812 24.2305 8.46875 19.7773 11.9844C18.7812 12.7461 16.8477 14.6211 15.5 14.5625C14.0938 14.6211 12.1602 12.7461 11.1641 11.9844C6.71094 8.46875 4.60156 6.82812 3.3125 5.71484V3.3125H27.6875ZM3.3125 20.1875V9.34766C4.60156 10.4023 6.53516 11.9258 9.40625 14.2109C10.6953 15.207 12.9805 17.4336 15.5 17.375C17.9609 17.4336 20.1875 15.207 21.5352 14.2109C24.4062 11.9258 26.3398 10.4023 27.6875 9.34766V20.1875H3.3125Z" fill="#111111"/>
</svg>
