<svg width="30" height="29" viewBox="0 0 30 29" fill="none" xmlns="http://www.w3.org/2000/svg">
<path d="M10.168 23.0703C10.168 22.9531 10.0508 22.8359 9.875 22.8359C9.69922 22.8359 9.58203 22.9531 9.58203 23.0703C9.58203 23.1875 9.69922 23.3047 9.875 23.2461C10.0508 23.2461 10.168 23.1875 10.168 23.0703ZM8.35156 22.7773C8.35156 22.8945 8.46875 23.0703 8.64453 23.0703C8.76172 23.1289 8.9375 23.0703 8.99609 22.9531C8.99609 22.8359 8.9375 22.7188 8.76172 22.6602C8.58594 22.6016 8.41016 22.6602 8.35156 22.7773ZM10.9883 22.7188C10.8125 22.7188 10.6953 22.8359 10.6953 23.0117C10.6953 23.1289 10.8711 23.1875 11.0469 23.1289C11.2227 23.0703 11.3398 23.0117 11.2812 22.8945C11.2812 22.7773 11.1055 22.6602 10.9883 22.7188ZM14.7969 0.21875C6.71094 0.21875 0.5 6.42969 0.5 14.5156C0.5 21.0195 4.54297 26.5859 10.4023 28.5781C11.1641 28.6953 11.3984 28.2266 11.3984 27.875C11.3984 27.4648 11.3984 25.4727 11.3984 24.2422C11.3984 24.2422 7.29688 25.1211 6.41797 22.4844C6.41797 22.4844 5.77344 20.7852 4.83594 20.375C4.83594 20.375 3.48828 19.4375 4.89453 19.4375C4.89453 19.4375 6.35938 19.5547 7.17969 20.9609C8.46875 23.2461 10.5781 22.6016 11.457 22.1914C11.5742 21.2539 11.9258 20.6094 12.3945 20.1992C9.11328 19.8477 5.77344 19.3789 5.77344 13.7539C5.77344 12.1133 6.24219 11.3516 7.17969 10.2969C7.00391 9.88672 6.53516 8.36328 7.35547 6.3125C8.52734 5.96094 11.3984 7.89453 11.3984 7.89453C12.5703 7.54297 13.8008 7.42578 15.0312 7.42578C16.3203 7.42578 17.5508 7.54297 18.7227 7.89453C18.7227 7.89453 21.5352 5.90234 22.7656 6.3125C23.5859 8.36328 23.0586 9.88672 22.9414 10.2969C23.8789 11.3516 24.4648 12.1133 24.4648 13.7539C24.4648 19.3789 21.0078 19.8477 17.7266 20.1992C18.2539 20.668 18.7227 21.5469 18.7227 22.9531C18.7227 24.8867 18.6641 27.3477 18.6641 27.8164C18.6641 28.2266 18.957 28.6953 19.7188 28.5195C25.5781 26.5859 29.5625 21.0195 29.5625 14.5156C29.5625 6.42969 22.9414 0.21875 14.7969 0.21875ZM6.18359 20.4336C6.06641 20.4922 6.125 20.668 6.18359 20.7852C6.30078 20.8438 6.41797 20.9023 6.53516 20.8438C6.59375 20.7852 6.59375 20.6094 6.47656 20.4922C6.35938 20.4336 6.24219 20.375 6.18359 20.4336ZM5.53906 19.9648C5.48047 20.082 5.53906 20.1406 5.65625 20.1992C5.77344 20.2578 5.89062 20.2578 5.94922 20.1406C5.94922 20.082 5.89062 20.0234 5.77344 19.9648C5.65625 19.9062 5.59766 19.9062 5.53906 19.9648ZM7.41406 22.0742C7.35547 22.1328 7.35547 22.3086 7.53125 22.4258C7.64844 22.543 7.82422 22.6016 7.88281 22.4844C7.94141 22.4258 7.94141 22.25 7.82422 22.1328C7.70703 22.0156 7.53125 21.957 7.41406 22.0742ZM6.76953 21.1953C6.65234 21.2539 6.65234 21.4297 6.76953 21.5469C6.88672 21.6641 7.00391 21.7227 7.12109 21.6641C7.17969 21.6055 7.17969 21.4297 7.12109 21.3125C7.00391 21.1953 6.88672 21.1367 6.76953 21.1953Z" fill="#111111"/>
</svg>
