<svg width="27" height="27" viewBox="0 0 27 27" fill="none" xmlns="http://www.w3.org/2000/svg">
<path d="M24.875 0.625H2.31641C1.32031 0.625 0.5 1.50391 0.5 2.55859V25C0.5 26.0547 1.32031 26.875 2.31641 26.875H24.875C25.8711 26.875 26.75 26.0547 26.75 25V2.55859C26.75 1.50391 25.8711 0.625 24.875 0.625ZM8.41016 23.125H4.54297V10.6445H8.41016V23.125ZM6.47656 8.88672C5.1875 8.88672 4.19141 7.89062 4.19141 6.66016C4.19141 5.42969 5.1875 4.375 6.47656 4.375C7.70703 4.375 8.70312 5.42969 8.70312 6.66016C8.70312 7.89062 7.70703 8.88672 6.47656 8.88672ZM23 23.125H19.0742V17.0312C19.0742 15.625 19.0742 13.75 17.082 13.75C15.0312 13.75 14.7383 15.332 14.7383 16.9727V23.125H10.8711V10.6445H14.5625V12.3438H14.6211C15.1484 11.3477 16.4375 10.293 18.3125 10.293C22.2383 10.293 23 12.9297 23 16.2695V23.125Z" fill="#111111"/>
</svg>
